{"title":"queen_a_winter's_tale_720p.mkv","uid":8506922,"size":53467254,"categoryP":"video","categoryS":"music_videos","magnet":"?xt=urn:btih:9338b9179d9f20d522c3b391dd520fcf5f41d8f7&amp;dn=queen_a_winter%27s_tale_720p.mkv&amp;tr=udp%3A%2F%2Ftracker.openbittorrent.com%3A80&amp;tr=udp%3A%2F%2Fopen.demonii.com%3A1337&amp;tr=udp%3A%2F%2Ftracker.coppersurfer.tk%3A6969&amp;tr=udp%3A%2F%2Fexodus.desync.com%3A6969","seeders":1,"leechers":0,"uploader":null,"files":1,"time":1369453459,"description":"Queen - A Winter's Tale (720p)\n\nFormat                           : Matroska\nFormat version                   : Version 2\nFile size                        : 51.0 MiB\nDuration                         : 4mn 13s\nOverall bit rate                 : 1 687 Kbps\n\nVideo\nFormat                           : AVC\nFormat/Info                      : Advanced Video Codec\nFormat profile                   : &lt;a class=&quot;__cf_email__&quot; href=&quot;/cdn-cgi/l/email-protection&quot; data-cfemail=&quot;96defff1fed6daa5b8a7&quot;&gt;[email&amp;#160;protected]&lt;/a&gt;&lt;script cf-hash='f9e31' type=&quot;text/javascript&quot;&gt;\n/* &lt;![CDATA[ */!function(){try{var t=&quot;currentScript&quot;in document?document.currentScript:function(){for(var t=document.getElementsByTagName(&quot;script&quot;),e=t.length;e--;)if(t[e].getAttribute(&quot;cf-hash&quot;))return t[e]}();if(t&amp;&amp;t.previousSibling){var e,r,n,i,c=t.previousSibling,a=c.getAttribute(&quot;data-cfemail&quot;);if(a){for(e=&quot;&quot;,r=parseInt(a.substr(0,2),16),n=2;a.length-n;n+=2)i=parseInt(a.substr(n,2),16)^r,e+=String.fromCharCode(i);e=document.createTextNode(e),c.parentNode.replaceChild(e,c)}}}catch(u){}}();/* ]]&gt; */&lt;/script&gt;\nFormat settings, CABAC           : Yes\nFormat settings, ReFrames        : 3 frames\nCodec ID                         : V_MPEG4/ISO/AVC\nDuration                         : 4mn 13s\nBit rate                         : 1 269 Kbps\nNominal bit rate                 : 1 340 Kbps\nWidth                            : 954 pixels\nHeight                           : 720 pixels\nDisplay aspect ratio             : 4:3\nFrame rate                       : 25.000 fps\nColor space                      : YUV\nChroma subsampling               : 4:2:0\nBit depth                        : 8 bits\nScan type                        : Progressive\nBits/(Pixel*Frame)               : 0.074\nStream size                      : 38.4 MiB (75%)\nWriting library                  : x264 core 79\n\n\nAudio\nID                               : 2\nFormat                           : AC-3\nFormat/Info                      : Audio Coding 3\nMode extension                   : CM (complete main)\nCodec ID                         : A_AC3\nDuration                         : 4mn 13s\nBit rate mode                    : Constant\nBit rate                         : 384 Kbps\nChannel(s)                       : 2 channels\nChannel positions                : Front: L R\nSampling rate                    : 48.0 KHz\nBit depth                        : 16 bits\nCompression mode                 : Lossy\nStream size                      : 11.6 MiB (23%)","torrent":{"xt":"urn:btih:9338b9179d9f20d522c3b391dd520fcf5f41d8f7","amp;dn":"queen_a_winter%27s_tale_720p.mkv","amp;tr":["udp%3A%2F%2Ftracker.openbittorrent.com%3A80","udp%3A%2F%2Fopen.demonii.com%3A1337","udp%3A%2F%2Ftracker.coppersurfer.tk%3A6969","udp%3A%2F%2Fexodus.desync.com%3A6969"],"infoHash":"9338b9179d9f20d522c3b391dd520fcf5f41d8f7","infoHashBuffer":{"type":"Buffer","data":[147,56,185,23,157,159,32,213,34,195,179,145,221,82,15,207,95,65,216,247]},"announce":[],"urlList":[]}}